<?xml version="1.0" encoding="UTF-8" standalone="no"?>
<!-- Generator: Adobe Illustrator 16.0.3, SVG Export Plug-In . SVG Version: 6.00 Build 0)  -->

<svg
   xmlns:dc="http://purl.org/dc/elements/1.1/"
   xmlns:cc="http://creativecommons.org/ns#"
   xmlns:rdf="http://www.w3.org/1999/02/22-rdf-syntax-ns#"
   xmlns:svg="http://www.w3.org/2000/svg"
   xmlns="http://www.w3.org/2000/svg"
   xmlns:sodipodi="http://sodipodi.sourceforge.net/DTD/sodipodi-0.dtd"
   xmlns:inkscape="http://www.inkscape.org/namespaces/inkscape"
   version="1.1"
   id="Layer_1"
   x="0px"
   y="0px"
   width="239px"
   height="270px"
   viewBox="0 0 239 270"
   enable-background="new 0 0 239 270"
   xml:space="preserve"
   sodipodi:docname="Seal_of_the_Hellenic_Air_Force.svg"
   inkscape:version="0.92.2 (5c3e80d, 2017-08-06)"><metadata
     id="metadata177"><rdf:RDF><cc:Work
         rdf:about=""><dc:format>image/svg+xml</dc:format><dc:type
           rdf:resource="http://purl.org/dc/dcmitype/StillImage" /></cc:Work></rdf:RDF></metadata><defs
     id="defs175" /><sodipodi:namedview
     pagecolor="#ffffff"
     bordercolor="#666666"
     borderopacity="1"
     objecttolerance="10"
     gridtolerance="10"
     guidetolerance="10"
     inkscape:pageopacity="0"
     inkscape:pageshadow="2"
     inkscape:window-width="1280"
     inkscape:window-height="737"
     id="namedview173"
     showgrid="false"
     inkscape:zoom="2.4722548"
     inkscape:cx="112.92409"
     inkscape:cy="112.27231"
     inkscape:window-x="-8"
     inkscape:window-y="-8"
     inkscape:window-maximized="1"
     inkscape:current-layer="g166" /><g
     id="g8"><path
       fill="#FFFFFF"
       stroke="#000000"
       d="M121.499,265.299C55.728,236.637,9.803,178.841,9.803,101.923l0.566-72.92   c0,0,47.321-23.598,111.13-24.302l0,0c63.812,0.704,111.13,24.302,111.13,24.302l0.568,72.92   C233.197,178.841,187.273,236.637,121.499,265.299L121.499,265.299z"
       id="path2" /><path
       fill="#0064B1"
       d="M121.499,255.824c-65.1-29.177-102.641-86.59-102.641-154.136l0.525-66.4   c13.473-5.737,52.927-20.553,102.115-21.113c49.188,0.561,88.644,15.376,102.116,21.113l0.527,66.4   C224.143,169.234,186.6,226.647,121.499,255.824L121.499,255.824z"
       id="path4"
       style="fill:#008bd0;fill-opacity:1" /><path
       fill="#FFFFFF"
       d="M121.501,249.064c-61.596-28.1-97.316-83.924-97.316-148.69l0.506-41.49   c16.191-6.559,52.353-18.844,96.873-19.354c44.397,0.511,80.556,12.801,96.749,19.357l0.504,41.487   C218.816,165.145,183.094,220.969,121.501,249.064L121.501,249.064z"
       id="path6" /></g><circle
     fill="#0064B1"
     cx="121.5"
     cy="133.703"
     r="73.974"
     id="circle10"
     style="fill:#008bd0;fill-opacity:1" /><circle
     cx="121.5"
     cy="133.703"
     r="51.077"
     id="circle12"
     style="fill:#ffffff" /><circle
     fill="#0064B1"
     cx="121.5"
     cy="133.703"
     r="25.637"
     id="circle14"
     style="fill:#008bd0;fill-opacity:1" /><g
     id="g168"
     style="fill-rule:nonzero;stroke:none;stroke-opacity:1"><path
       style="fill-rule:nonzero;stroke:none;stroke-opacity:1"
       d="M 32.619141 65.271484 C 32.548709 65.250139 32.491875 65.254891 32.453125 65.291016 C 32.071125 65.974016 32.442625 66.788359 32.640625 67.443359 C 33.454625 70.952359 36.638891 74.410953 37.837891 76.001953 C 36.383891 75.560953 34.611031 74.600687 32.832031 73.304688 C 31.772031 72.444688 31.518 73.857109 32 74.787109 C 33.807 78.607109 37.821359 81.696656 40.568359 84.347656 C 39.398359 85.069656 38.106734 84.133406 36.927734 83.816406 C 35.971734 83.821406 34.310391 82.156562 33.650391 83.976562 C 34.768391 88.161563 39.257625 89.855141 42.265625 92.744141 C 41.770625 93.682141 40.971203 92.640672 40.158203 93.013672 C 39.623203 93.122672 39.862984 93.774391 39.833984 94.025391 C 41.202984 99.319391 49.269828 101.71352 49.798828 102.35352 C 48.610828 102.70252 47.054547 101.48902 45.935547 102.41602 C 44.247547 105.96202 55.333062 108.48327 56.039062 109.32227 C 55.332062 109.31527 53.380344 109.00625 53.402344 110.65625 C 54.348344 113.84925 64.363281 116.39844 64.363281 116.39844 C 64.400281 117.14544 61.103469 116.89025 60.730469 117.78125 C 61.205469 120.87225 67.863734 121.71562 71.927734 122.39062 C 71.929734 124.13563 69.539484 122.83934 69.021484 124.15234 C 69.293484 125.88834 73.640531 127.70948 75.769531 127.89648 C 79.671531 128.30948 74.575391 128.99473 75.025391 130.55273 C 75.657391 132.39273 82.153625 132.69862 84.140625 133.39062 C 83.850625 133.40562 80.926891 134.79502 80.962891 135.54102 C 81.747891 138.34202 89.536719 138.36545 91.386719 138.81445 C 90.477719 139.77345 88.726906 139.65102 88.378906 141.04102 C 88.043906 142.77002 95.238609 143.94516 98.599609 143.53516 C 98.338609 144.17116 95.328641 144.65144 95.306641 145.89844 C 95.893641 146.86844 97.277094 147.09109 98.371094 147.37109 C 97.246094 150.10309 98.491297 151.48677 99.529297 152.38477 C 95.683297 152.78077 81.957875 152.33136 79.671875 152.31836 C 77.994875 152.02736 75.286781 152.15052 73.675781 152.35352 C 69.846781 152.45652 76.488266 157.29933 83.572266 156.73633 C 83.667266 156.98033 75.797313 160.34386 79.570312 160.75586 C 82.242312 160.99886 84.494125 160.30817 86.703125 159.57617 C 86.703125 159.57617 81.056672 164.08083 83.638672 164.04883 C 85.137672 164.10183 88.885547 162.54667 89.560547 162.76367 C 89.324547 163.89767 87.282875 165.32694 87.921875 165.83594 C 89.539875 166.63094 91.434484 165.87945 92.646484 164.68945 C 92.709484 165.97545 91.650766 167.31687 91.134766 168.67188 C 91.593766 169.56387 94.200703 168.64691 95.470703 167.25391 C 95.231703 168.30491 94.932156 169.85777 95.160156 171.13477 C 95.445156 173.21277 97.124563 169.62527 98.226562 169.19727 C 98.588562 169.80227 98.1585 170.36447 98.3125 170.98047 C 97.9375 172.52047 99.986875 170.35834 100.79688 170.77734 C 100.58288 171.49334 100.18775 171.92706 99.59375 172.53906 C 99.13075 173.26806 100.06045 173.59827 100.56445 173.69727 C 100.59445 174.31827 99.866438 174.72972 100.02344 175.38672 C 100.27044 176.20572 101.23092 175.45269 101.66992 175.92969 L 100.8418 177.67383 C 101.2828 178.19283 101.83053 177.49952 102.26953 177.97852 C 102.53853 178.34852 101.44298 178.93292 101.70898 179.29492 C 102.31798 179.84592 102.73903 179.11784 103.33203 179.33984 C 103.19403 179.92884 102.38288 180.63248 102.92188 181.14648 C 104.09488 182.18948 104.34592 179.66444 105.54492 179.52344 C 106.37892 179.59444 105.23623 180.86819 106.11523 180.99219 C 106.73923 181.00319 107.0015 179.7152 107.3125 179.2832 C 108.4035 180.5292 108.88613 182.43612 109.32812 183.82812 C 109.18512 185.16512 107.98562 183.56072 107.26562 184.13672 C 106.74362 185.36772 105.95478 186.7987 104.92578 187.8457 C 104.79478 189.4317 106.17291 190.07712 107.25391 190.70312 C 109.45791 190.72213 108.86908 193.20387 110.33008 194.17188 C 111.10008 194.43887 112.57605 195.05991 113.74805 194.37891 C 114.24605 194.35591 113.69111 194.80555 114.16211 195.06055 C 116.59711 195.32555 117.61605 193.86414 119.24805 193.24414 C 120.23405 192.82914 120.24709 192.10839 121.12109 192.15039 C 122.54509 193.24539 123.63258 191.65522 125.26758 191.94922 C 125.88458 191.83622 126.4088 192.20537 127.0918 191.85938 C 129.7868 191.72837 130.98767 189.28913 132.01367 187.32812 C 132.48067 184.94112 130.17291 184.19867 129.00391 182.76367 C 127.49591 181.67267 124.89445 183.34725 123.81445 181.65625 C 122.81145 178.96125 121.87489 176.02977 120.71289 173.50977 C 121.56289 172.17977 131.13056 168.33825 132.72656 164.15625 C 132.91256 163.46125 132.43009 163.17417 132.74609 162.82617 C 133.47309 163.24817 133.62298 164.18652 134.70898 163.85352 C 135.27398 163.53552 135.32955 162.94975 135.81055 162.59375 C 136.55555 162.51575 136.21723 163.61523 136.99023 163.74023 C 137.82423 163.78323 138.14392 162.68723 138.79492 162.36523 C 140.11392 161.30323 139.94086 163.7212 141.25586 163.4082 C 143.53586 160.3972 146.37569 162.74381 148.67969 162.25781 C 150.74669 162.10981 152.24453 162.04477 153.76953 162.63477 C 154.83753 163.24777 153.39522 164.23728 154.07422 164.61328 C 155.36922 164.75928 156.47089 163.45966 157.08789 162.47266 C 158.22989 159.46666 154.76108 158.22106 153.45508 156.16406 C 153.10508 154.89306 151.52228 153.34952 150.48828 152.35352 C 149.45328 151.35452 148.31839 150.58663 147.15039 150.01562 C 147.28439 149.30662 147.21153 148.44409 146.76953 147.37109 C 147.86353 147.09209 149.24603 146.86844 149.83203 145.89844 C 149.81003 144.65144 146.79806 144.17016 146.53906 143.53516 C 149.89806 143.94516 157.09672 142.76902 156.76172 141.04102 C 156.41272 139.65102 154.66195 139.77345 153.75195 138.81445 C 155.60395 138.36545 163.39273 138.34102 164.17773 135.54102 C 164.21373 134.79402 161.28709 133.40462 160.99609 133.39062 C 162.98409 132.69862 169.48028 132.39273 170.11328 130.55273 C 170.56328 128.99473 165.46714 128.30948 169.36914 127.89648 C 171.49914 127.70848 175.84519 125.88834 176.11719 124.15234 C 175.59919 122.83934 173.21089 124.13562 173.21289 122.39062 C 177.27689 121.71462 183.9342 120.87225 184.4082 117.78125 C 184.0362 116.88925 180.73939 117.14444 180.77539 116.39844 C 180.77539 116.39844 190.79033 113.85025 191.73633 110.65625 C 191.75833 109.00625 189.80561 109.31427 189.09961 109.32227 C 189.80561 108.48327 200.89113 105.96202 199.20312 102.41602 C 198.08513 101.48902 196.5298 102.70252 195.3418 102.35352 C 195.8728 101.71352 203.93864 99.319391 205.30664 94.025391 C 205.27764 93.774391 205.51742 93.122672 204.98242 93.013672 C 204.16942 92.640672 203.37 93.682141 202.875 92.744141 C 205.884 89.856141 210.37128 88.161563 211.48828 83.976562 C 210.82828 82.156563 209.17084 83.822406 208.21484 83.816406 C 207.03484 84.133406 205.74227 85.068656 204.57227 84.347656 C 207.31927 81.695656 211.33462 78.606109 213.14062 74.787109 C 213.62463 73.856109 213.36955 72.444688 212.31055 73.304688 C 210.53155 74.600688 208.75964 75.560953 207.30664 76.001953 C 208.50564 74.410953 211.68795 70.952359 212.50195 67.443359 C 212.69895 66.788359 213.07045 65.974016 212.68945 65.291016 C 212.37945 65.002016 210.95581 66.743313 210.00781 67.445312 C 207.76981 69.040312 197.14239 77.454 191.90039 80.5 C 186.00339 83.927 178.06888 87.99225 175.29688 89.78125 C 172.52588 91.56925 166.77894 96.486297 164.08594 98.904297 C 161.39394 101.3223 150.24711 113.01877 146.78711 115.50977 C 143.32711 118.00077 135.44083 121.87686 132.67383 124.50586 C 130.05283 126.99586 126.68631 132.21838 122.57031 142.23438 C 118.45531 132.21838 115.09075 126.99586 112.46875 124.50586 C 109.70075 121.87786 101.81352 118.00177 98.353516 115.50977 C 94.894516 113.01877 83.749641 101.3223 81.056641 98.904297 C 78.363641 96.486297 72.616703 91.57025 69.845703 89.78125 C 67.074703 87.99225 59.140188 83.927 53.242188 80.5 C 48.000188 77.454 37.373766 69.041313 35.134766 67.445312 C 34.304391 66.831063 33.112162 65.420904 32.619141 65.271484 z M 113.18945 176.86523 C 113.18545 177.61423 112.51092 178.2717 112.66992 178.9707 L 114.95312 178.07031 C 115.64413 178.61831 114.51873 179.38094 114.55273 180.08594 C 114.68373 181.10294 115.68487 179.44894 116.29688 179.21094 C 116.55787 179.44694 116.21375 180.0455 116.71875 180.1875 C 117.35275 180.4065 117.65914 179.02011 118.11914 179.91211 C 118.34814 180.35811 118.84794 181.00489 118.83594 181.58789 C 116.57494 181.09889 115.5848 182.76389 115.9668 185.21289 C 116.1758 185.24289 116.72041 185.90134 116.69141 186.15234 C 116.08141 186.43134 115.03087 186.22164 114.54688 185.80664 C 113.05787 183.38564 111.98639 179.71825 111.52539 177.65625 C 111.83039 177.09925 112.57145 176.97823 113.18945 176.86523 z "
       id="path16" /><g
       id="g166"
       style="fill-rule:nonzero;stroke:none;stroke-opacity:1"><g
         id="g64"
         style="fill-rule:nonzero;stroke:none;stroke-opacity:1;fill:#ffff00;fill-opacity:1"><path
           d="M57.875,85.5c2.38,1.09,4.438,2.361,6.928,3.155c5.254,2.154,14.159,10.824,15.653,12.497     c4.468,4.688,14.553,13.798,16.02,14.891c3.679,2.581,10.278,5.658,13.019,8.185c7.472,6.02,11.896,19.535,12.108,20.48     c-0.484-0.069-1.604,0.365-1.788,0.001c-0.754-1.834-2.409-4.247-3.636-6.391c-2.486-4.118-6.235-7.718-9.364-10.517     c-22.297-14.367-33.368-29.727-37.317-33.223c-3.355-2.708-7.375-4.621-9.888-6.19c-4.962-2.045-8.189-5.683-13.285-7.888     c-3.692-1.566-8.164-6.089-9.825-9.825C37.017,71.065,53.91,83.448,57.875,85.5z"
           id="path18"
           style="fill-rule:nonzero;stroke:none;stroke-opacity:1;fill:#ffff00;fill-opacity:1"
           fill="#FFF200" /><path
           d="M56,87.96c-1.165,1.119,0.233,2.837,0.289,3.125c0,0-11.693-2.767-15.171-9.176     c-0.412-0.77-1.88-2.964-1.711-3.762C43.003,81.053,52.449,85.888,56,87.96z"
           id="path20"
           style="fill-rule:nonzero;stroke:none;stroke-opacity:1;fill:#ffff00;fill-opacity:1"
           fill="#FFF200" /><path
           d="M51.859,92.4c0.727,0.422,5.397,2.006,5.397,2.006c-0.208,0.484,0.346,2.629,1.868,3.459     c-3.243-0.881-7.67-2.395-10.863-3.943c-4.143-1.864-7.413-5.558-8.084-7.396C40.177,86.527,48.037,90.716,51.859,92.4z"
           id="path22"
           style="fill-rule:nonzero;stroke:none;stroke-opacity:1;fill:#ffff00;fill-opacity:1"
           fill="#FFF200" /><path
           d="M62.515,91.569c0.6,0.545,3.857,2.93,4.982,3.667c-2.2,0.066-4.359-0.138-6.78-1.591     c-0.969-0.761-1.591-1.813-1.038-2.422C60.301,90.601,61.689,91.004,62.515,91.569z"
           id="path24"
           style="fill-rule:nonzero;stroke:none;stroke-opacity:1;fill:#ffff00;fill-opacity:1"
           fill="#FFF200" /><path
           d="M60.854,100.357c-0.553,0.691,2.075,3.044,2.075,3.044c-0.045-0.082-9.824-0.208-14.806-3.806     c-1.427-1.136-5.466-3.391-4.705-5.12C43.418,94.476,54.212,99.665,60.854,100.357z"
           id="path26"
           style="fill-rule:nonzero;stroke:none;stroke-opacity:1;fill:#ffff00;fill-opacity:1"
           fill="#FFF200" /><path
           d="M68.49,96.954c1.082,0.981,1.774,2.283,2.269,3.049c-2.478,0.329-6.998,0.216-9.004-2.414     c-0.507-0.73,0.138-1.384,1.038-1.314C64.369,96.239,67.289,97.035,68.49,96.954z"
           id="path28"
           style="fill-rule:nonzero;stroke:none;stroke-opacity:1;fill:#ffff00;fill-opacity:1"
           fill="#FFF200" /><path
           d="M73.706,103.351c1.817,1.019,0.474,2.055,0.601,2.09c-2.507,0.579-6.602,0.728-7.671-1.332     c-0.868-2.992,4.441-2.152,5.774-2.092C72.694,102.751,73.146,102.962,73.706,103.351z"
           id="path30"
           style="fill-rule:nonzero;stroke:none;stroke-opacity:1;fill:#ffff00;fill-opacity:1"
           fill="#FFF200" /><path
           d="M64.245,105.615c1.446,0.678,0.484,1.937,4.774,3.39c-5.466,0.692-20.479-3.251-17.782-4.704     C51.24,104.278,62.176,105.443,64.245,105.615z"
           id="path32"
           style="fill-rule:nonzero;stroke:none;stroke-opacity:1;fill:#ffff00;fill-opacity:1"
           fill="#FFF200" /><path
           d="M78.229,108.326c0.615,0.195,3.59,3.24,3.66,3.793c0,0-8.649,0.899-9.586-2.591     C71.648,106.86,76.717,108.025,78.229,108.326z"
           id="path34"
           style="fill-rule:nonzero;stroke:none;stroke-opacity:1;fill:#ffff00;fill-opacity:1"
           fill="#FFF200" /><path
           d="M68.93,111.979c1.135,1.108,3.024,1.515,3.918,2.802c0.391,0.452,0.391,0.798-0.542,0.816     c-4.464,0.121-9.521-0.909-13.366-3.922c-1.199-1.146-0.156-1.488-0.156-1.488C62.215,110.642,66.39,110.666,68.93,111.979z"
           id="path36"
           style="fill-rule:nonzero;stroke:none;stroke-opacity:1;fill:#ffff00;fill-opacity:1"
           fill="#FFF200" /><path
           d="M84.794,114.264c-0.463,0.729-0.492,1.872,0.054,2.842l1.13,1.025c-0.162,0.091-9.141-0.339-8.614-2.781     C77.529,113.779,82.931,113.564,84.794,114.264z"
           id="path38"
           style="fill-rule:nonzero;stroke:none;stroke-opacity:1;fill:#ffff00;fill-opacity:1"
           fill="#FFF200" /><path
           d="M74.692,118c1.591,1.086,3.455,1.107,5.189,1.729c-0.208,0.485,0.969,1.385,1.453,1.522     c-2.49,0.346-12.865-0.073-16.121-2.076C62.307,117.17,71.648,117.654,74.692,118z"
           id="path40"
           style="fill-rule:nonzero;stroke:none;stroke-opacity:1;fill:#ffff00;fill-opacity:1"
           fill="#FFF200" /><path
           d="M91.244,119.58c-0.246,0.926-0.431,2.502,2.696,4.149c-1.701,0.914-7.486,1.258-8.739-1.071     c-0.145-0.409-0.258-1.027,0.056-1.416C86.454,119.383,90.77,119.229,91.244,119.58z"
           id="path42"
           style="fill-rule:nonzero;stroke:none;stroke-opacity:1;fill:#ffff00;fill-opacity:1"
           fill="#FFF200" /><path
           d="M81.076,124.147c0.522,1.559,5.378,2.432,5.378,2.432c-3.457,0.708-14.46,0.623-13.491-2.491     C74.83,123.167,80.988,123.189,81.076,124.147z"
           id="path44"
           style="fill-rule:nonzero;stroke:none;stroke-opacity:1;fill:#ffff00;fill-opacity:1"
           fill="#FFF200" /><path
           d="M96.794,125.17c0.355,1.313,1.712,2.23,2.944,2.793c-0.17,0.389-1.384,0.691-1.853,0.853     c-1.972,0.469-8.387,0.116-6.406-2.681C92.128,125.403,95.425,125.195,96.794,125.17z"
           id="path46"
           style="fill-rule:nonzero;stroke:none;stroke-opacity:1;fill:#ffff00;fill-opacity:1"
           fill="#FFF200" /><path
           d="M87.178,128.256c-0.17,1.368,4.449,2.61,5.618,2.72l0.226,0.363c-0.121,0.088-11.688,1.675-12.951-1.366     C78.913,127.895,84.682,128.211,87.178,128.256z"
           id="path48"
           style="fill-rule:nonzero;stroke:none;stroke-opacity:1;fill:#ffff00;fill-opacity:1"
           fill="#FFF200" /><path
           d="M102.616,129.501c-0.499,0.855,2.589,3.375,5.246,3.609c-1.273,1.564-11.444,2.325-10.346-1.658     C98.286,129.347,102.616,129.501,102.616,129.501z"
           id="path50"
           style="fill-rule:nonzero;stroke:none;stroke-opacity:1;fill:#ffff00;fill-opacity:1"
           fill="#FFF200" /><path
           d="M93.695,133.218c0.729,2.167,4.245,2.439,5.975,2.979c-0.088,0.753-1.458,0.859-2.422,1.107     c-3.256,0.583-14.184-0.692-11.693-2.837C85.521,133.761,93.695,133.218,93.695,133.218z"
           id="path52"
           style="fill-rule:nonzero;stroke:none;stroke-opacity:1;fill:#ffff00;fill-opacity:1"
           fill="#FFF200" /><path
           d="M108.245,135.004c0.449,0.685,1.803,2.438,3.342,2.913c0,0-6.903,2.528-8.389-0.683     C103.807,135.21,108.245,135.004,108.245,135.004z"
           id="path54"
           style="fill-rule:nonzero;stroke:none;stroke-opacity:1;fill:#ffff00;fill-opacity:1"
           fill="#FFF200" /><path
           d="M99.081,138.857c1.595,1.17,2.484,1.681,4.394,1.63c0.062,0.412,1.931,0.747,1.66,1.176     c-3.622-0.115-11.139,1.868-13.699-0.762C91.09,140.21,97.128,138.87,99.081,138.857z"
           id="path56"
           style="fill-rule:nonzero;stroke:none;stroke-opacity:1;fill:#ffff00;fill-opacity:1"
           fill="#FFF200" /><path
           d="M114.531,141.183c-0.65,2.025-2.542,1.578-4.395,1.917c-1.264,0.293-3.616-1.021-1.012-2.86     C111.117,139.353,112.857,140.101,114.531,141.183z"
           id="path58"
           style="fill-rule:nonzero;stroke:none;stroke-opacity:1;fill:#ffff00;fill-opacity:1"
           fill="#FFF200" /><path
           d="M105.62,143.669c0,0,0.415,1.245,3.626,1.677c0.056,0.289-6.416,1.479-9.023-0.017     C98.77,144.292,103.631,143.011,105.62,143.669z"
           id="path60"
           style="fill-rule:nonzero;stroke:none;stroke-opacity:1;fill:#ffff00;fill-opacity:1"
           fill="#FFF200" /><path
           d="M116.448,145.578c-0.749,0.826-1.972,0.859-2.965,0.56c-1.913-0.809-1.367-1.474-0.114-1.984     C115.168,143.738,116.054,144.308,116.448,145.578z"
           id="path62"
           style="fill-rule:nonzero;stroke:none;stroke-opacity:1;fill:#ffff00;fill-opacity:1"
           fill="#FFF200" /></g><g
         id="g112"
         style="fill-rule:nonzero;stroke:none;stroke-opacity:1;fill:#ffff00;fill-opacity:1"><path
           d="M187.268,85.5c-2.38,1.09-4.437,2.361-6.929,3.155c-5.253,2.154-14.158,10.824-15.652,12.497     c-4.469,4.688-14.553,13.798-16.02,14.891c-3.679,2.581-10.277,5.658-13.02,8.185c-7.472,6.02-11.896,19.535-12.106,20.48     c0.483-0.069,1.604,0.365,1.787,0.001c0.754-1.834,2.409-4.247,3.636-6.391c2.486-4.118,6.236-7.718,9.364-10.517     c22.298-14.367,33.367-29.727,37.317-33.223c3.355-2.708,7.376-4.621,9.888-6.19c4.963-2.045,8.19-5.683,13.285-7.888     c3.691-1.566,8.164-6.089,9.824-9.825C208.125,71.065,191.233,83.448,187.268,85.5z"
           id="path66"
           style="fill-rule:nonzero;stroke:none;stroke-opacity:1;fill:#ffff00;fill-opacity:1"
           fill="#FFF200" /><path
           d="M189.143,87.96c1.165,1.119-0.232,2.837-0.288,3.125c0,0,11.693-2.767,15.171-9.176     c0.411-0.77,1.881-2.964,1.712-3.762C202.139,81.053,192.693,85.888,189.143,87.96z"
           id="path68"
           style="fill-rule:nonzero;stroke:none;stroke-opacity:1;fill:#ffff00;fill-opacity:1"
           fill="#FFF200" /><path
           d="M193.283,92.4c-0.727,0.422-5.397,2.006-5.397,2.006c0.208,0.484-0.346,2.629-1.868,3.459     c3.244-0.881,7.671-2.395,10.863-3.943c4.143-1.864,7.413-5.558,8.084-7.396C204.965,86.527,197.105,90.716,193.283,92.4z"
           id="path70"
           style="fill-rule:nonzero;stroke:none;stroke-opacity:1;fill:#ffff00;fill-opacity:1"
           fill="#FFF200" /><path
           d="M182.628,91.569c-0.601,0.545-3.857,2.93-4.982,3.667c2.2,0.066,4.359-0.138,6.781-1.591     c0.969-0.761,1.59-1.813,1.038-2.422C184.842,90.601,183.453,91.004,182.628,91.569z"
           id="path72"
           style="fill-rule:nonzero;stroke:none;stroke-opacity:1;fill:#ffff00;fill-opacity:1"
           fill="#FFF200" /><path
           d="M184.289,100.357c0.553,0.691-2.076,3.044-2.076,3.044c0.046-0.082,9.825-0.208,14.807-3.806     c1.427-1.136,5.466-3.391,4.704-5.12C201.724,94.476,190.931,99.665,184.289,100.357z"
           id="path74"
           style="fill-rule:nonzero;stroke:none;stroke-opacity:1;fill:#ffff00;fill-opacity:1"
           fill="#FFF200" /><path
           d="M176.651,96.954c-1.081,0.981-1.772,2.283-2.267,3.049c2.478,0.329,6.998,0.216,9.004-2.414     c0.507-0.73-0.138-1.384-1.037-1.314C180.773,96.239,177.854,97.035,176.651,96.954z"
           id="path76"
           style="fill-rule:nonzero;stroke:none;stroke-opacity:1;fill:#ffff00;fill-opacity:1"
           fill="#FFF200" /><path
           d="M171.438,103.351c-1.817,1.019-0.475,2.055-0.601,2.09c2.507,0.579,6.603,0.728,7.67-1.332     c0.869-2.992-4.44-2.152-5.772-2.092C172.448,102.751,171.996,102.962,171.438,103.351z"
           id="path78"
           style="fill-rule:nonzero;stroke:none;stroke-opacity:1;fill:#ffff00;fill-opacity:1"
           fill="#FFF200" /><path
           d="M180.897,105.615c-1.445,0.678-0.484,1.937-4.773,3.39c5.466,0.692,20.479-3.251,17.781-4.704     C193.902,104.278,182.966,105.443,180.897,105.615z"
           id="path80"
           style="fill-rule:nonzero;stroke:none;stroke-opacity:1;fill:#ffff00;fill-opacity:1"
           fill="#FFF200" /><path
           d="M166.914,108.326c-0.615,0.195-3.591,3.24-3.66,3.793c0,0,8.649,0.899,9.587-2.591     C173.495,106.86,168.425,108.025,166.914,108.326z"
           id="path82"
           style="fill-rule:nonzero;stroke:none;stroke-opacity:1;fill:#ffff00;fill-opacity:1"
           fill="#FFF200" /><path
           d="M176.213,111.979c-1.135,1.108-3.024,1.515-3.919,2.802c-0.391,0.452-0.391,0.798,0.543,0.816     c4.463,0.121,9.521-0.909,13.366-3.922c1.198-1.146,0.155-1.488,0.155-1.488C182.928,110.642,178.754,110.666,176.213,111.979z"
           id="path84"
           style="fill-rule:nonzero;stroke:none;stroke-opacity:1;fill:#ffff00;fill-opacity:1"
           fill="#FFF200" /><path
           d="M160.349,114.264c0.464,0.729,0.491,1.872-0.055,2.842l-1.13,1.025c0.162,0.091,9.142-0.339,8.614-2.781     C167.613,113.779,162.212,113.564,160.349,114.264z"
           id="path86"
           style="fill-rule:nonzero;stroke:none;stroke-opacity:1;fill:#ffff00;fill-opacity:1"
           fill="#FFF200" /><path
           d="M170.451,118c-1.592,1.086-3.455,1.107-5.189,1.729c0.207,0.485-0.969,1.385-1.454,1.522     c2.491,0.346,12.865-0.073,16.122-2.076C182.835,117.17,173.495,117.654,170.451,118z"
           id="path88"
           style="fill-rule:nonzero;stroke:none;stroke-opacity:1;fill:#ffff00;fill-opacity:1"
           fill="#FFF200" /><path
           d="M153.898,119.58c0.246,0.926,0.431,2.502-2.695,4.149c1.701,0.914,7.485,1.258,8.738-1.071     c0.146-0.409,0.258-1.027-0.056-1.416C158.688,119.383,154.373,119.229,153.898,119.58z"
           id="path90"
           style="fill-rule:nonzero;stroke:none;stroke-opacity:1;fill:#ffff00;fill-opacity:1"
           fill="#FFF200" /><path
           d="M164.066,124.147c-0.521,1.559-5.378,2.432-5.378,2.432c3.456,0.708,14.461,0.623,13.491-2.491     C170.313,123.167,164.154,123.189,164.066,124.147z"
           id="path92"
           style="fill-rule:nonzero;stroke:none;stroke-opacity:1;fill:#ffff00;fill-opacity:1"
           fill="#FFF200" /><path
           d="M148.348,125.17c-0.354,1.313-1.711,2.23-2.943,2.793c0.169,0.389,1.383,0.691,1.853,0.853     c1.973,0.469,8.387,0.116,6.406-2.681C153.014,125.403,149.719,125.195,148.348,125.17z"
           id="path94"
           style="fill-rule:nonzero;stroke:none;stroke-opacity:1;fill:#ffff00;fill-opacity:1"
           fill="#FFF200" /><path
           d="M157.966,128.256c0.169,1.368-4.45,2.61-5.618,2.72l-0.227,0.363c0.119,0.088,11.687,1.675,12.95-1.366     C166.23,127.895,160.461,128.211,157.966,128.256z"
           id="path96"
           style="fill-rule:nonzero;stroke:none;stroke-opacity:1;fill:#ffff00;fill-opacity:1"
           fill="#FFF200" /><path
           d="M142.526,129.501c0.499,0.855-2.589,3.375-5.246,3.609c1.273,1.564,11.445,2.325,10.346-1.658     C146.856,129.347,142.526,129.501,142.526,129.501z"
           id="path98"
           style="fill-rule:nonzero;stroke:none;stroke-opacity:1;fill:#ffff00;fill-opacity:1"
           fill="#FFF200" /><path
           d="M151.448,133.218c-0.729,2.167-4.245,2.439-5.976,2.979c0.089,0.753,1.458,0.859,2.423,1.107     c3.256,0.583,14.183-0.692,11.692-2.837C159.622,133.761,151.448,133.218,151.448,133.218z"
           id="path100"
           style="fill-rule:nonzero;stroke:none;stroke-opacity:1;fill:#ffff00;fill-opacity:1"
           fill="#FFF200" /><path
           d="M136.897,135.004c-0.448,0.685-1.804,2.438-3.343,2.913c0,0,6.903,2.528,8.39-0.683     C141.336,135.21,136.897,135.004,136.897,135.004z"
           id="path102"
           style="fill-rule:nonzero;stroke:none;stroke-opacity:1;fill:#ffff00;fill-opacity:1"
           fill="#FFF200" /><path
           d="M146.062,138.857c-1.595,1.17-2.484,1.681-4.395,1.63c-0.061,0.412-1.93,0.747-1.66,1.176     c3.622-0.115,11.14,1.868,13.699-0.762C154.053,140.21,148.014,138.87,146.062,138.857z"
           id="path104"
           style="fill-rule:nonzero;stroke:none;stroke-opacity:1;fill:#ffff00;fill-opacity:1"
           fill="#FFF200" /><path
           d="M130.612,141.183c0.649,2.025,2.871,2.009,4.724,2.349c1.265,0.292,3.287-1.453,0.684-3.292     C134.026,139.353,132.285,140.101,130.612,141.183z"
           id="path106"
           style="fill-rule:nonzero;stroke:none;stroke-opacity:1;fill:#ffff00;fill-opacity:1"
           fill="#FFF200" /><path
           d="M139.522,143.669c0,0-0.138,1.004-3.771,2.456c-0.055,0.289,6.561,0.699,9.169-0.796     C146.372,144.292,141.512,143.011,139.522,143.669z"
           id="path108"
           style="fill-rule:nonzero;stroke:none;stroke-opacity:1;fill:#ffff00;fill-opacity:1"
           fill="#FFF200" /><path
           d="M128.693,145.578c1.143,0.34,2.952,0.432,3.841,0.547c1.972,0.104,0.492-1.461-0.76-1.972     C129.975,143.738,129.089,144.308,128.693,145.578z"
           id="path110"
           style="fill-rule:nonzero;stroke:none;stroke-opacity:1;fill:#ffff00;fill-opacity:1"
           fill="#FFF200" /></g><path
         d="M104.028,148.098c-0.22,0.592-2.831,1.321-3.528,1.521c-0.554-0.483-0.29-1.215,0.306-1.784    C101.555,147.841,103.268,147.891,104.028,148.098z"
         id="path114"
         style="fill-rule:nonzero;stroke:none;stroke-opacity:1;fill:#ffff00;fill-opacity:1"
         fill="#FFF200" /><path
         d="M140.698,147.786c1.488,0.52,2.971,0.941,3.668,1.142c0.554-0.484,0.151-0.835-0.445-1.404    C143.173,147.528,141.46,147.578,140.698,147.786z"
         id="path116"
         style="fill-rule:nonzero;stroke:none;stroke-opacity:1;fill:#ffff00;fill-opacity:1"
         fill="#FFF200" /><path
         d="M113.208,149.019c0,0-3.576,2.538-6.279-0.067c0.256-0.721,1.088-1.251,1.736-1.614    C110.593,146.827,111.309,149.277,113.208,149.019z"
         id="path118"
         style="fill-rule:nonzero;stroke:none;stroke-opacity:1;fill:#ffff00;fill-opacity:1"
         fill="#FFF200" /><path
         d="M118.632,148.995c-0.982,0.296-1.88,1.504-2.764,1.257c-0.392-0.355-0.335-0.899-0.065-1.328    c0.725-0.491,1.606-1.157,2.456-0.784C118.275,148.472,118.697,148.617,118.632,148.995z"
         id="path120"
         style="fill-rule:nonzero;stroke:none;stroke-opacity:1;fill:#ffff00;fill-opacity:1"
         fill="#FFF200" /><path
         d="M102.851,151.435c-0.829-0.362,0.914-1.714,1.731-1.331C105.399,150.486,103.681,151.796,102.851,151.435z    "
         id="path122"
         style="fill-rule:nonzero;stroke:none;stroke-opacity:1;fill:#ffff00;fill-opacity:1"
         fill="#FFF200" /><path
         d="M120.019,151.473c-0.343,0.639-2.222,2.299-2.547,0.622C117.472,152.095,120.15,149.887,120.019,151.473z"
         id="path124"
         style="fill-rule:nonzero;stroke:none;stroke-opacity:1;fill:#ffff00;fill-opacity:1"
         fill="#FFF200" /><path
         d="M115.237,153.286c0,0-3.39,3.113-6.642,0.485c0.97-1.287,3.102-2.341,4.498-2.699    C113.092,151.072,113.477,152.548,115.237,153.286z"
         id="path126"
         style="fill-rule:nonzero;stroke:none;stroke-opacity:1;fill:#ffff00;fill-opacity:1"
         fill="#FFF200" /><path
         d="M89.518,154.161c2.035-0.017,3.248,0.132,5.317-0.052c0.093,0.204-0.148,0.382-0.312,0.432    c-2.783,0.883-6.479,0.106-9.114,0.609c-0.876-0.082-1.678-0.334-2.447-0.755c1.713-0.664,4.19-0.161,6.379-0.434L89.518,154.161z    "
         id="path128"
         style="fill-rule:nonzero;stroke:none;stroke-opacity:1;fill:#ffff00;fill-opacity:1"
         fill="#FFF200" /><path
         d="M121.846,152.298c0.767,1.25-1.608,1.117-0.874,2.536c-1.585,1.615-2.054,3.924-2.499,5.898    c-1.368,0.856-0.755-2.706,0.135-3.207c-0.391-0.354-0.597-1.176-0.163-1.654c0.243-0.137,0.612-0.237,0.681-0.532    c-0.348-1.188,1.782-0.959,0.975-2.167C120.539,152.777,121.034,151.838,121.846,152.298z"
         id="path130"
         style="fill-rule:nonzero;stroke:none;stroke-opacity:1;fill:#ffff00;fill-opacity:1"
         fill="#FFF200" /><path
         d="M138.975,148.972c1.6,0.421,2.916,0.979,4.54,1.066c1.059,0.135,6.805,2.33,8.276,6.082    c-1.224,1.348-3.124,1.564-4.807,2.021c-0.402,0.269-0.612,0.749-0.235,1.133c1.255,1.021,3.226,0.509,4.278,1.662    c0,0-4.517,1.033-5.713-0.387c0,0,0.438-0.396,0.468-0.646c-0.194-0.573-1.136-0.277-0.961-0.951    c-0.735-0.588-1.32,1.321-2.178,0.521c0.312-0.431-0.076-0.929-0.427-1.103c-0.445-0.208-1.449,0.795-1.552,0.138    c0.34-0.681,2.253-1.085,1.834-2.021c0.275-0.305,0.448-0.573,0.287-0.929c-0.311-0.4-0.652-0.218-0.989,0.173    c-0.337,0.39,0.079,0.874-0.846,1.412c-0.442,0.313-1.268,0.436-1.521,1.196c0.281,0.65-0.771,2.556-1.26,1.434    c-0.153-0.575,0.626-0.712,0.522-1.195c-0.624-1.716,2.006-1.453,1.694-2.778c0.283-0.18,0.658-0.854,0.521-1.027    c-0.482-0.517-1.039-0.104-1.135,0.351c-0.291,1.718-2.341,1.444-2.458,3.32c-0.074,0.688-0.783,1.824-1.903,1.88    c-1.25-0.085-0.731-1.02-0.353-1.272c1.419-0.819,0.71-1.654,0.819-1.951c0.497-0.896,1.537-0.033,1.957-0.801    c0.129-0.755-0.583-1.718,0.483-2.02c0.202-0.13,0.063-0.684-0.456-0.613c-1.902,0.331-0.727,1.833-1.35,1.937    c-1.487,0.276-1.913,0.853-2.117,1.777c0.439,1.35-1.585,1.267-1.772,2.87c-1.092,0.266-0.574-0.72-0.763-1.167    c-0.086-0.471,1.4-0.782,0.4-2.015c0.056-1.416,3.387-1.501,1.798-2.374c-0.486-0.13-3.427,1.012-2.699,2.016    c0.585,1.8-1.857,1.738-1.653,3.391c0.061,0.311-0.236,0.543-0.527,0.448c-0.555-0.305-0.389-1.359-0.328-1.819    c0.592-0.651,1.331-1.328,1.124-1.847c-0.208-0.52-0.538-0.501-0.312-0.969c0.578-0.942,1.979-0.713,1.66-2.11l1.145-1.027    c-0.326-0.731-1.405-0.051-1.939,0.059c-1.174,0.639-0.532,2.099-2.147,2.219c-0.761,0.619-0.522,1.23-0.115,1.918    c-0.086,0.793-1.321,1.02-1.275,1.973c0.261,1.068-1.306,2.539-1.917,1.589c-0.253-0.503,0.715-0.883,0.604-1.234    c-0.471-1.14-0.161-1.612,0.712-2.443c0.368-0.596-0.894-1.288-0.004-1.788c0.889-0.542,2.153-1.019,1.476-2.149l0.795-0.745    c0.28-1.38-1.969-0.099-1.955,0.802c0.119,1.615-2.411,0.865-2.28,2.688c0.248,1.692-1.815,0.113-2.111,3.595    c-1.261,0.878-1.258-1.671-0.757-2.749c0.5-1.078,1.177-0.557,1.434-1.274c-0.026-0.539-0.966,0.129-0.554-0.946    c0.187-0.485,0.698-1.018,1.456-1.011c0.758,0.008,0.986-1.086,1.24-1.847c-0.521-0.474-0.935,0.134-1.627-0.129    c-2.798-1.061-2.595-2.948-2.817-4.934C120.685,146.369,133.206,146.592,138.975,148.972z M143.487,152.035    c-0.359,0.167-0.267,0.512-0.267,0.512c0.464,0.254,1.17,0.85,1.388,1.293c0.406,3.897,3.943,2.905,4.704,2.215l0.64-0.136    c-0.812-2.079-2.559-2.524-4.306-3.013C144.554,152.601,143.625,151.972,143.487,152.035z"
         id="path132"
         style="fill-rule:nonzero;stroke:none;stroke-opacity:1;fill:#ffff00;fill-opacity:1"
         fill="#FFF200" /><path
         d="M92.724,155.999c-0.378,0.768-1.318,1.104-2.052,1.389c-1.054,0.551-2.262,0.484-3.549,0.505    C87.969,155.649,90.794,156.467,92.724,155.999z"
         id="path134"
         style="fill-rule:nonzero;stroke:none;stroke-opacity:1;fill:#ffff00;fill-opacity:1"
         fill="#FFF200" /><path
         d="M147.343,155.256c0.828-0.066,1-0.797,1.493-0.072c0.109,0.535-2.287,1.648-3.017-0.132    c-0.139-0.485,0.06-0.848,0.384-1.028C146.822,154.082,146.555,155.294,147.343,155.256z"
         id="path136"
         style="fill-rule:nonzero;stroke:none;stroke-opacity:1;fill:#ffff00;fill-opacity:1"
         fill="#FFF200" /><path
         d="M95.146,157.087l0.011,0.208c-1.745,2.578-4.504,2.255-6.471,3.681c0.082-0.877,1.219-1.431,1.958-2.464    C92.437,158.633,93.43,156.839,95.146,157.087z"
         id="path138"
         style="fill-rule:nonzero;stroke:none;stroke-opacity:1;fill:#ffff00;fill-opacity:1"
         fill="#FFF200" /><path
         d="M97.586,157.676c-0.398,1.224-2.023,2.841-3.072,4.347c-0.898,0.335-1.813,1.169-2.74,0.924l-0.021-0.415    C93.584,160.862,94.801,157.687,97.586,157.676z"
         id="path140"
         style="fill-rule:nonzero;stroke:none;stroke-opacity:1;fill:#ffff00;fill-opacity:1"
         fill="#FFF200" /><path
         d="M95.437,164.762c-0.196-2.317,2.24-4.347,4.139-5.479C98.883,161.27,97.521,164.037,95.437,164.762z"
         id="path142"
         style="fill-rule:nonzero;stroke:none;stroke-opacity:1;fill:#ffff00;fill-opacity:1"
         fill="#FFF200" /><path
         d="M153.557,158.237c0.112,0.617-0.266,0.861,0.115,1.311c0.381,0.45,1.323-0.923,1.371,0.196    c0.047,1.118,1.086,0.323,1.12,1.292c0.146,0.45,0.068,1.176-0.485,1.349c-0.947,0.171-1.019-1.125-1.783-1.463    c-1.547-1.046-3.431-1.329-5.093-2.162c0.236-0.261,0.735-0.285,1.102-0.428c0.409,0.728,1.574,0.979,2.205,0.89    c0.629-0.089,0.531-0.938,0.355-1.222c-0.177-0.284-0.608-0.554-0.121-0.784C153.038,156.975,153.369,157.789,153.557,158.237z"
         id="path144"
         style="fill-rule:nonzero;stroke:none;stroke-opacity:1;fill:#ffff00;fill-opacity:1"
         fill="#FFF200" /><path
         d="M99.282,166.072c-0.493,0.106-0.843,0.622-1.475,0.445c-0.583-1.718,1.008-3.208,1.686-4.654    c0.596-0.569,1.014-1.379,1.79-1.667C101.222,162.361,100.025,164.248,99.282,166.072z"
         id="path146"
         style="fill-rule:nonzero;stroke:none;stroke-opacity:1;fill:#ffff00;fill-opacity:1"
         fill="#FFF200" /><path
         d="M116.67,162.109c0.92,0.952-0.234,2.006-0.352,3.009c-2.475,2.947-5.079,5.817-7.771,8.566    c-0.261,0.636-0.311,1.304,0.092,1.906c1.577,0.797,1.458,2.632,2.064,3.974c0.818,2.287,1.802,4.566,2.453,6.863    c0.931,1.201,2.445,0.712,3.445,1.619c0.519,1.263,0.761,2.83,1.023,3.94c-0.303,0.597-1.055,1.382-1.746,1.706    c-0.319-0.566,0.261-1.468,0.308-2.218c-0.672-1.006-0.048-2.699-1.368-3.341c-1.078,0.052-1.505-1.049-2.551-1.165    c-0.756,1.533,1.335,1.805,2.126,2.681c-0.137,1.462,0.457,3.428-1.386,3.975c-0.63-0.136-1.532,0.116-1.812-0.494    c0.77-0.411,1.758,0.247,2.126-0.727c0.445-1.102-0.095-1.948-0.795-2.663c-1.156-0.691-1.811-2.198-3.322-2.498    c-0.318-0.566-0.938-0.495-1.31-0.436c-1.097,0.512-0.249,1.717-0.584,2.522c-0.42-0.104-0.816-0.542-1.039-0.864    c-0.177-1.071,0.999-1.669,1.371-2.56c1.155-0.182,3.357,1.499,3.836-0.603c-1.231-3.099-1.841-6.228-3.595-8.969    c-0.356-0.481-0.705,0.034-1.015-0.366l0.246-0.927c-0.426-0.229-0.887-0.29-1.289-0.021c-0.202,0.135-0.31,0.473-0.602,0.445    c-0.41-0.729,1.391-1.314,0.322-1.928c-0.375-0.024-0.511,0.606-0.902,0.252l0.933-1.334c-0.23-0.446-0.917-0.039-0.901-0.579    c0.529-0.234,1.256-0.685,1.306-1.353c-0.57-0.596-1.515,0.489-1.808-0.411c0.739-0.202,1.701-0.082,2.029-1.013    c0.104-0.422-0.786-0.793-0.342-1.064c0.201-0.134,0.448-0.188,0.602-0.444c-0.009-1.038-1.518-0.425-1.69-1.414    c0.776-0.287,2.375,0.965,2.469-0.494c-0.266-0.36-0.729-0.463-0.909-0.746l0.971-0.546c0.08-0.918-2.545-1.04-0.912-1.66    c0.388-0.558-0.795-0.958-0.446-1.474C109.193,162.182,113.078,162.575,116.67,162.109z"
         id="path148"
         style="fill-rule:nonzero;stroke:none;stroke-opacity:1;fill:#ffff00;fill-opacity:1"
         fill="#FFF200" /><path
         d="M126.585,162.522c-0.021,0.418-0.728,0.693-1.217,0.659c-1.379-0.141-2.834-0.152-4.179-0.461    c-0.022-0.456,0.829-1.512,0.829-1.512L126.585,162.522z"
         id="path150"
         style="fill-rule:nonzero;stroke:none;stroke-opacity:1;fill:#ffff00;fill-opacity:1"
         fill="#FFF200" /><path
         d="M128.885,165.422c0.137,0.243,0.259,1.111-0.225,1.426c-1.668,0.954-5.604,3.529-8.373,5.189    c-0.806,0.659-1.798,0.691-1.899,1.46c0.032,1.169,0.998,0.865,1.551,1.129c1.095,2.856,2.025,5.763,3.241,8.529l3.402,0.749    l2.284,3.078l-0.553,1.591c-0.957,0.836-1.488,1.875-2.491,2.63c-0.427-0.229-0.285-0.598-0.218-0.893l1.476-2.149    c-0.38-0.979-0.773-2.218-1.624-2.622c-0.508-0.184-1.295-0.287-1.604-0.504c-0.284,0.733,1.207,1.366,1.277,1.601    c0.429,1.102,0.9,2.007-0.33,3.341c-0.638,0.571-1.469,1.227-2.367,0.904c-0.208-0.094-0.593-0.22-0.407-0.687    c0.617-0.114,1.633-0.367,1.79-1.413c0.171-1.63-0.486-2.558-1.462-3.798c-1.182-0.359-2.306-1.26-3.545-1.116    c-0.987,0.214-0.191,2.045-1.513,1.361c-0.515-0.349-0.348-1.188-0.29-1.69c-0.016-0.33,0.384-0.642,0.667-0.821    c0.896-0.377,1.793,0.12,2.668,0.161l0.193-0.3c-0.677-1.963-1.071-4.063-1.586-6.116c-0.355-0.481-0.815-0.085-1.22,0.142    c-0.075,0.17-0.623,0.277-0.688-0.049c-0.155-0.615,1.126-1.635-0.087-1.783c-0.62,0.072-1.371,1.763-1.624,0.786    c-0.027-0.539,0.625-0.82,0.104-1.294c-0.305-0.276-1.008-0.2-0.909-0.746c0.16-0.72,2.082-0.428,1.544-1.411    c-0.178-0.241-0.868-0.076-0.766-0.538c1.316-0.271,2.536-0.83,3.41-1.661c0.746-0.776-0.609-0.554-0.425-1.061    c0.647-0.364,2.209-0.614,1.714-1.497c-0.139-0.284-0.591-0.179-0.526-0.557c0.622-0.029,1.366-0.152,1.541-0.78    c0.094-0.628-0.936-0.688-0.436-1.267C123.065,165.413,126.366,165.753,128.885,165.422z"
         id="path152"
         style="fill-rule:nonzero;stroke:none;stroke-opacity:1;fill:#ffff00;fill-opacity:1"
         fill="#FFF200" /><path
         d="M112.055,175.565c0.02,0.415-0.346,0.9-0.879,0.9c-0.297-0.347-0.772-1.188-0.159-1.384    C111.501,175.012,111.922,175.405,112.055,175.565z"
         id="path154"
         style="fill-rule:nonzero;stroke:none;stroke-opacity:1;fill:#ffff00;fill-opacity:1"
         fill="#FFF200" /><path
         d="M129.975,185.044c0.409,0.729,1.729,1.246,0.983,2.514c-0.88,0.707-1.465,2.545-2.437,3.091    c-0.477-0.392,0.381-1.254,0.623-1.867c0.418-0.81,1.348-1.409,0.678-2.375c-0.457-0.85-1.766-1.922-1.646-2.884    C128.811,183.779,129.377,184.503,129.975,185.044z"
         id="path158"
         style="fill-rule:nonzero;stroke:none;stroke-opacity:1;fill:#ffff00;fill-opacity:1"
         fill="#FFF200" /><path
         d="M122.571,188.694c-0.236,0.261-1.166,0.751-1.453,0.848c-0.312-1.273-0.719-2.885-1.923-3.699    c-0.14-0.325,0.227-0.468,0.381-0.725C120.813,184.891,123.499,188.109,122.571,188.694z"
         id="path160"
         style="fill-rule:nonzero;stroke:none;stroke-opacity:1;fill:#ffff00;fill-opacity:1"
         fill="#FFF200" /><path
         d="M119.803,188.504c0.278,0.761,0.623,2.101-0.221,2.724c-0.401,0.252-0.818,0.355-0.956,0.113    c0.139-1.453-1.03-3.282-0.83-4.29C118.907,186.789,119.32,187.604,119.803,188.504z"
         id="path162"
         style="fill-rule:nonzero;stroke:none;stroke-opacity:1;fill:#ffff00;fill-opacity:1"
         fill="#FFF200" /><path
         d="M111.591,190.992c0.032,0.663-0.607,1.194-1.289,0.854c-0.637-0.261-1.77-0.497-1.653-1.5l0.131-1.586    C109.909,188.872,110.965,190.066,111.591,190.992z"
         id="path164"
         style="fill-rule:nonzero;stroke:none;stroke-opacity:1;fill:#ffff00;fill-opacity:1"
         fill="#FFF200" /></g></g><path
     fill="#FFF200"
     d="M46.373,45.049l8.281-5.127l2.804,4.421l0.408-0.256l0.75-0.469l0.408-0.265l-8.419-13.205L46.373,45.049z   M53.663,38.359l-4.128,2.575l1.704-6.394L53.663,38.359z M107.212,20.522l-3.595,7.499l-2.578-4.62L99.848,24l-0.441,0.231  l3.199,5.696l-2.43,5.334l1.233,0.575l0.426,0.204l7.048-14.75l-1.237-0.567L107.212,20.522z M121.48,22.896l-3.838,3.839  l0.921-6.559l-1.366-0.142l-0.462-0.052l-0.987,7.005l-3.25-4.143l-1.07,0.812l-0.387,0.292l4.386,5.601l-0.563,4.593l-0.07,0.477  l1.365,0.15l0.472,0.052l0.624-5.14l5.515-5.495l-0.943-0.954L121.48,22.896z M71.564,32.051l-0.071-0.478l-4.556,0.66l2.833-3.769  l-1.1-0.818l-0.39-0.287l-4.604,6.193l6.423,4.867l0.834-1.063l0.297-0.387l-3.901-2.938l4.43-0.649L71.564,32.051z M59.412,29.884  l-0.831,0.25l-0.463,0.147l3.421,11.182l1.294-0.398l0.457-0.139l-3.422-11.19L59.412,29.884z M79.407,25.106L78.94,25.15  l0.425,5.238l-4.357-6.236l-1.153,15.784l0.475,0.044l0.866,0.079l0.487,0.043l0.742-10.537l5.29,7.871l-0.946-12.472L79.407,25.106  z M137.068,34.229l0.479,0.099l0.857,0.168l0.451,0.087l1.082-4.788l0.076,0.248l6.826-3.338l-6.527-7.171L137.068,34.229z   M141.379,23.409l2.465,2.72l-3.477,1.769L141.379,23.409z M184.959,27.755l-0.836-0.212l-0.467-0.114l-2.838,11.349l1.316,0.327  l0.467,0.115l2.82-11.35L184.959,27.755z M195.365,31.563l-0.441-0.177l-2.082,4.822l-0.914-7.552l-8.434,13.39l0.398,0.267  l0.727,0.466l0.402,0.267l5.611-8.958l0.988,9.416l5.006-11.428L195.365,31.563z M179.395,27.783l-0.695-1.177l-0.26-0.415  l-6.605,3.984l4.09,6.942l1.174-0.671l0.418-0.239L175.023,32l4.354,1.089l0.32-1.317l0.113-0.466l-4.451-1.114L179.395,27.783z   M163.135,24.398l-0.086,0.441l0.441,0.114l2.328,0.594l-2.561,12.003l1.314,0.3l0.471,0.114l2.588-12.065l2.199,0.45l0.451,0.098  l0.336-1.352l0.121-0.477l-7.318-1.774L163.135,24.398z M125.375,19.975H124.9v11.692h1.35h0.475V19.975h-0.475H125.375z   M134.676,22.032l-0.316-0.204l-3.516,3.224l-0.178-4.672l-0.025-0.477l-1.334,0.035l-0.488,0.017l0.529,14.036l1.434-0.256  l0.404-0.071l-0.188-5.053l3.473,2.897l0.877-1.016l0.316-0.371l-4-3.338l4.313-3.887L134.676,22.032z M147.623,33.223l9.586-1.658  l0.945,5.146l0.486-0.079l0.861-0.161l0.471-0.087l-2.859-15.405L147.623,33.223z M152.084,30.59l3.975-5.29l0.82,4.457  L152.084,30.59z"
     id="path170"
     style="fill:#ffff00;fill-opacity:1" /></svg>